<?xml version="1.0" encoding="utf-8"?>
<!-- Generator: Adobe Illustrator 16.0.0, SVG Export Plug-In . SVG Version: 6.00 Build 0)  -->
<!DOCTYPE svg PUBLIC "-//W3C//DTD SVG 1.1//EN" "http://www.w3.org/Graphics/SVG/1.1/DTD/svg11.dtd">
<svg version="1.1" id="Layer_1" xmlns="http://www.w3.org/2000/svg" xmlns:xlink="http://www.w3.org/1999/xlink" x="0px" y="0px"
	 width="164.5px" height="44.25px" viewBox="10.063 0 164.5 44.25" enable-background="new 10.063 0 164.5 44.25"
	 xml:space="preserve">
<g>
	<g>
		<g>
			<path fill="#FFFFFF" d="M13.205,9.57l6.606,3.814l6.268-3.619c3.229-1.864,6.921-1.864,10.149,0l6.268,3.619l6.606-3.814
				l-8.286-4.784c-6.146-3.548-13.182-3.548-19.327,0L13.205,9.57z"/>
			<path fill="#FFFFFF" d="M49.948,11.041l-6.599,3.81v7.238c0,3.729-1.849,6.928-5.076,8.792l-6.268,3.616v7.628l8.279-4.78
				c6.146-3.548,9.663-9.641,9.663-16.738V11.041z"/>
			<path fill="#FFFFFF" d="M30.3,41.997V34.5l-6.269-3.621c-3.227-1.862-5.074-5.063-5.074-8.79v-7.238l-6.599-3.811v9.439
				c0,7.098,3.518,13.191,9.664,16.739L30.3,41.997z"/>
		</g>
	</g>
	<g>
		<path fill="#FFFFFF" d="M59.232,34.546c-0.411-0.398-0.617-0.958-0.617-1.681V11.086c0-0.722,0.206-1.282,0.617-1.681
			c0.411-0.398,0.977-0.598,1.7-0.598h13.485c0.722,0,1.282,0.162,1.681,0.485c0.398,0.324,0.598,0.784,0.598,1.382
			c0,0.623-0.2,1.103-0.598,1.438c-0.399,0.336-0.959,0.505-1.681,0.505H63.323v7.247H73.67c0.722,0,1.282,0.162,1.681,0.485
			c0.398,0.324,0.598,0.797,0.598,1.42c0,0.598-0.2,1.059-0.598,1.382c-0.399,0.324-0.959,0.485-1.681,0.485H63.323v7.695h11.095
			c0.722,0,1.282,0.168,1.681,0.505c0.398,0.336,0.598,0.815,0.598,1.438c0,0.598-0.2,1.06-0.598,1.383
			c-0.399,0.323-0.959,0.485-1.681,0.485H60.932C60.209,35.144,59.643,34.944,59.232,34.546z"/>
		<path fill="#FFFFFF" d="M95.71,18.296c1.071,1.245,1.606,3.126,1.606,5.641v9.189c0,0.698-0.205,1.246-0.616,1.644
			c-0.411,0.398-0.978,0.599-1.7,0.599s-1.295-0.2-1.718-0.599c-0.424-0.397-0.636-0.945-0.636-1.644v-8.928
			c0-1.42-0.268-2.452-0.803-3.101c-0.536-0.647-1.376-0.971-2.521-0.971c-1.345,0-2.422,0.423-3.231,1.27
			c-0.81,0.847-1.214,1.979-1.214,3.399v8.33c0,0.698-0.212,1.246-0.635,1.644c-0.423,0.398-0.996,0.599-1.718,0.599
			c-0.723,0-1.289-0.2-1.7-0.599c-0.411-0.397-0.616-0.945-0.616-1.644V18.669c0-0.646,0.211-1.17,0.635-1.568
			s0.996-0.598,1.719-0.598c0.647,0,1.177,0.193,1.587,0.579c0.411,0.386,0.616,0.891,0.616,1.513v1.009
			c0.623-1.021,1.457-1.806,2.503-2.354s2.229-0.822,3.549-0.822C93.008,16.428,94.639,17.051,95.71,18.296z"/>
		<path fill="#FFFFFF" d="M102.098,33.836c-0.798-0.473-1.195-1.146-1.195-2.017c0-0.498,0.137-0.903,0.41-1.215
			c0.273-0.311,0.61-0.467,1.009-0.467c0.423,0,1.009,0.2,1.757,0.598c0.795,0.374,1.523,0.66,2.184,0.859s1.5,0.299,2.521,0.299
			c1.047,0,1.861-0.174,2.447-0.523c0.586-0.348,0.879-0.834,0.879-1.456c0-0.424-0.119-0.76-0.355-1.009s-0.66-0.479-1.27-0.691
			c-0.611-0.211-1.539-0.454-2.783-0.729c-2.217-0.448-3.805-1.083-4.764-1.905c-0.959-0.821-1.438-1.954-1.438-3.399
			c0-1.095,0.322-2.085,0.971-2.97c0.647-0.884,1.537-1.569,2.672-2.055c1.133-0.485,2.422-0.729,3.865-0.729
			c1.047,0,2.055,0.131,3.025,0.393c0.973,0.262,1.844,0.642,2.615,1.14c0.797,0.498,1.195,1.157,1.195,1.979
			c0,0.499-0.137,0.915-0.41,1.252c-0.275,0.336-0.611,0.504-1.01,0.504c-0.273,0-0.541-0.056-0.803-0.168s-0.592-0.28-0.99-0.504
			c-0.723-0.374-1.344-0.654-1.867-0.841s-1.17-0.28-1.941-0.28c-0.922,0-1.65,0.187-2.186,0.561
			c-0.537,0.373-0.805,0.884-0.805,1.531c0,0.623,0.275,1.097,0.822,1.42c0.549,0.323,1.607,0.647,3.176,0.971
			c1.668,0.35,2.975,0.747,3.922,1.195s1.625,1.009,2.037,1.682c0.41,0.672,0.615,1.531,0.615,2.577
			c0,1.694-0.703,3.051-2.109,4.072c-1.408,1.021-3.283,1.531-5.623,1.531C105.957,35.442,103.766,34.907,102.098,33.836z"/>
		<path fill="#FFFFFF" d="M136.314,17.101c0.424,0.398,0.637,0.934,0.637,1.606v14.494c0,0.647-0.219,1.171-0.654,1.568
			c-0.436,0.398-1.002,0.599-1.699,0.599c-0.674,0-1.209-0.188-1.607-0.561c-0.398-0.374-0.598-0.884-0.598-1.532v-0.934
			c-0.572,0.996-1.344,1.763-2.316,2.298c-0.971,0.535-2.066,0.803-3.287,0.803c-4.482,0-6.723-2.515-6.723-7.546v-9.189
			c0-0.673,0.211-1.208,0.635-1.606c0.422-0.398,0.982-0.598,1.68-0.598c0.723,0,1.295,0.199,1.719,0.598s0.635,0.934,0.635,1.606
			v9.227c0,1.296,0.262,2.255,0.785,2.877s1.346,0.934,2.465,0.934c1.295,0,2.336-0.43,3.119-1.289
			c0.785-0.858,1.178-1.998,1.178-3.418v-8.33c0-0.673,0.211-1.208,0.635-1.606s0.984-0.598,1.682-0.598
			C135.318,16.503,135.893,16.702,136.314,17.101z"/>
		<path fill="#FFFFFF" d="M153.537,16.914c0.373,0.323,0.559,0.81,0.559,1.456c0,0.673-0.162,1.171-0.484,1.495
			c-0.324,0.323-0.91,0.535-1.756,0.635l-1.121,0.112c-1.469,0.149-2.547,0.647-3.23,1.494c-0.686,0.847-1.027,1.905-1.027,3.175
			v7.845c0,0.723-0.225,1.277-0.674,1.663c-0.447,0.386-1.008,0.579-1.68,0.579s-1.227-0.193-1.662-0.579
			c-0.438-0.386-0.654-0.94-0.654-1.663V18.669c0-0.696,0.217-1.232,0.654-1.605c0.436-0.374,0.977-0.561,1.625-0.561
			c0.646,0,1.17,0.181,1.568,0.541c0.398,0.361,0.598,0.878,0.598,1.551v1.494c0.473-1.096,1.176-1.942,2.111-2.54
			c0.934-0.598,1.973-0.934,3.119-1.009l0.521-0.037C152.652,16.453,153.162,16.59,153.537,16.914z"/>
		<path fill="#FFFFFF" d="M171.225,30.623c0.262,0.324,0.393,0.761,0.393,1.308c0,0.772-0.461,1.42-1.383,1.942
			c-0.848,0.474-1.807,0.854-2.877,1.14s-2.092,0.43-3.063,0.43c-2.939,0-5.268-0.847-6.986-2.54s-2.576-4.01-2.576-6.948
			c0-1.868,0.373-3.523,1.119-4.969c0.748-1.444,1.799-2.564,3.158-3.362c1.355-0.797,2.895-1.195,4.613-1.195
			c1.643,0,3.074,0.361,4.295,1.084s2.166,1.743,2.84,3.063c0.672,1.32,1.008,2.876,1.008,4.669c0,1.071-0.473,1.606-1.42,1.606
			h-11.02c0.15,1.719,0.635,2.982,1.457,3.792s2.018,1.214,3.586,1.214c0.797,0,1.5-0.1,2.111-0.299
			c0.609-0.199,1.301-0.473,2.072-0.822c0.748-0.397,1.295-0.598,1.645-0.598C170.619,30.138,170.963,30.3,171.225,30.623z
			 M160.689,20.911c-0.76,0.797-1.213,1.942-1.363,3.437h8.443c-0.051-1.519-0.424-2.671-1.121-3.455
			c-0.697-0.785-1.67-1.178-2.914-1.178C162.465,19.715,161.449,20.114,160.689,20.911z"/>
	</g>
</g>
</svg>
